<?xml version="1.0" encoding="UTF-8"?>
<svg width="22px" height="26px" viewBox="0 0 22 26" version="1.1" xmlns="http://www.w3.org/2000/svg" xmlns:xlink="http://www.w3.org/1999/xlink">
    <!-- Generator: Sketch 55.1 (78136) - https://sketchapp.com -->
    <title>buzzvideo</title>
    <desc>Created with Sketch.</desc>
    <defs>
        <linearGradient x1="100%" y1="50%" x2="0%" y2="50%" id="linearGradient-1">
            <stop stop-color="#FFF001" offset="0%"></stop>
            <stop stop-color="#FFF001" stop-opacity="0" offset="100%"></stop>
        </linearGradient>
    </defs>
    <g id="folder-list" stroke="none" stroke-width="1" fill="none" fill-rule="evenodd">
        <g id="list-folder" transform="translate(-694.000000, -700.000000)">
            <g id="buzzvideo" transform="translate(694.000000, 700.000000)">
                <circle id="Oval" fill="url(#linearGradient-1)" cx="11" cy="11" r="11"></circle>
                <ellipse id="Oval" fill="#FFF001" cx="11" cy="13" rx="11" ry="10"></ellipse>
                <circle id="Oval" fill="url(#linearGradient-1)" transform="translate(11.000000, 15.000000) scale(-1, 1) translate(-11.000000, -15.000000) " cx="11" cy="15" r="11"></circle>
                <path d="M9.48564293,8.82535718 L15.4265169,12.1258427 C15.9093006,12.3940559 16.0832444,13.0028592 15.8150312,13.4856429 C15.7243423,13.648883 15.589757,13.7834684 15.4265169,13.8741573 L9.48564293,17.1746428 C9.0028592,17.442856 8.39405591,17.2689122 8.12584272,16.7861285 C8.0433105,16.6375705 8,16.4704298 8,16.3004855 L8,9.69951446 C8,9.14722971 8.44771525,8.69951446 9,8.69951446 C9.16994425,8.69951446 9.33708493,8.74282496 9.48564293,8.82535718 Z" id="Rectangle" fill="#010001"></path>
            </g>
        </g>
    </g>
</svg>