<?xml version="1.0" encoding="UTF-8"?>
<svg width="11px" height="12px" viewBox="0 0 11 12" version="1.1" xmlns="http://www.w3.org/2000/svg" xmlns:xlink="http://www.w3.org/1999/xlink">
    <!-- Generator: Sketch 64 (93537) - https://sketch.com -->
    <title>zucks</title>
    <desc>Created with Sketch.</desc>
    <g id="folder-list" stroke="none" stroke-width="1" fill="none" fill-rule="evenodd">
        <g id="list-folder" transform="translate(-387.000000, -915.000000)">
            <g id="ad" transform="translate(367.000000, 267.000000)">
                <g id="Group-33" transform="translate(0.000000, 647.000000)">
                    <g id="zucks" transform="translate(20.000000, 1.000000)">
                        <path d="M2.359,8.073 L4.696,9.422 L4.696,11.4225 L0.6955,9.1125 L2.359,8.073 Z M8.16,7.9995 L9.892,8.9995 L5.696,11.4225 L5.696,9.4225 L8.16,7.9995 Z M0,3.2885 L1.732,4.2885 L1.732,7.2855 L0,8.368 L0,3.2885 Z M10.392,3.0535 L10.392,8.133 L8.66,7.1335 L8.66,4.136 L10.392,3.0535 Z M4.696,7.10542736e-15 L4.696,2 L2.2325,3.422 L0.5005,2.422 L4.696,7.10542736e-15 Z" id="Shape" fill="#828282"></path>
                        <polygon id="Path" fill="#707070" opacity="0.400000006" points="5.696 -7.32747196e-15 9.6965 2.3095 8.0325 3.349 5.696 1.9995"></polygon>
                    </g>
                </g>
            </g>
        </g>
    </g>
</svg>