<?xml version="1.0" encoding="UTF-8"?>
<svg width="18px" height="17px" viewBox="0 0 18 17" version="1.1" xmlns="http://www.w3.org/2000/svg" xmlns:xlink="http://www.w3.org/1999/xlink">
    <!-- Generator: Sketch 64 (93537) - https://sketch.com -->
    <title>icon_house</title>
    <desc>Created with Sketch.</desc>
    <g id="Page-1" stroke="none" stroke-width="1" fill="none" fill-rule="evenodd">
        <g id="report" transform="translate(-49.000000, -1673.000000)" fill="#fff">
            <g id="week" transform="translate(30.000000, 1271.000000)">
                <g id="Group-26" transform="translate(18.000000, 86.000000)">
                    <g id="icon_house" transform="translate(1.000000, 316.000000)">
                        <path d="M9.70710678,0.707106781 L11.9992136,2.99921356 L12,2 C12,1.44771525 12.4477153,1 13,1 C13.5522847,1 14,1.44771525 14,2 L13.9992136,4.99921356 L17.2928932,8.29289322 C17.6834175,8.68341751 17.6834175,9.31658249 17.2928932,9.70710678 C17.1053568,9.89464316 16.8510029,10 16.5857864,10 L14,10 L14,16 C14,16.5522847 13.5522847,17 13,17 L5,17 C4.44771525,17 4,16.5522847 4,16 L4,10 L1.41421356,10 C0.861928813,10 0.414213562,9.55228475 0.414213562,9 C0.414213562,8.73478351 0.519570403,8.4804296 0.707106781,8.29289322 L8.29289322,0.707106781 C8.68341751,0.316582489 9.31658249,0.316582489 9.70710678,0.707106781 Z M10,10 L8,10 C7.44771525,10 7,10.4477153 7,11 L7,11 L7,13 C7,13.5522847 7.44771525,14 8,14 L8,14 L10,14 C10.5522847,14 11,13.5522847 11,13 L11,13 L11,11 C11,10.4477153 10.5522847,10 10,10 L10,10 Z" id="Combined-Shape"></path>
                    </g>
                </g>
            </g>
        </g>
    </g>
</svg>
